<?xml version="1.0" encoding="UTF-8"?>
<svg id="Calque_2" data-name="Calque 2" xmlns="http://www.w3.org/2000/svg" viewBox="0 0 46.88 46.87">
  <defs>
    <style>
      .cls-1 {
        fill: aqua;
      }

      .cls-2 {
        opacity: .8;
      }
    </style>
  </defs>
  <g id="Maquette">
    <g class="cls-2">
      <path class="cls-1" d="m23.41,17.62c-3.21,0-5.81,2.6-5.81,5.81s2.6,5.81,5.81,5.81,5.81-2.6,5.81-5.81-2.6-5.81-5.81-5.81Z"/>
      <path class="cls-1" d="m30.72,9.2h-14.47c-3.88,0-7.02,3.15-7.02,7.02v14.44c0,3.88,3.15,7.02,7.02,7.02h14.47c3.88,0,7.02-3.15,7.02-7.02v-14.44c0-3.88-3.15-7.02-7.02-7.02Zm-7.25,23.18c-4.94,0-8.94-4-8.94-8.94s4-8.94,8.94-8.94,8.94,4,8.94,8.94-4,8.94-8.94,8.94Zm9.29-16.12c-1.17,0-2.11-.95-2.11-2.11s.95-2.11,2.11-2.11,2.11.95,2.11,2.11-.95,2.11-2.11,2.11Z"/>
      <path class="cls-1" d="m36.59,0H10.28C4.6,0,0,4.6,0,10.28v26.31c0,5.68,4.6,10.28,10.28,10.28h26.31c5.68,0,10.28-4.6,10.28-10.28V10.28c0-5.68-4.6-10.28-10.28-10.28Zm4.24,31.04c0,5.41-4.38,9.79-9.79,9.79h-15.17c-5.41,0-9.79-4.38-9.79-9.79v-15.2c0-5.41,4.38-9.79,9.79-9.79h15.17c5.41,0,9.79,4.38,9.79,9.79v15.2Z"/>
    </g>
  </g>
</svg>