<?xml version="1.0" encoding="UTF-8"?>
<svg id="Calque_2" data-name="Calque 2" xmlns="http://www.w3.org/2000/svg" viewBox="0 0 46.9 47.03">
  <defs>
    <style>
      .cls-1 {
        fill: aqua;
      }

      .cls-2 {
        opacity: .8;
      }
    </style>
  </defs>
  <g id="Maquette">
    <g class="cls-2">
      <path class="cls-1" d="m25.11,25.54L45.46,5.02c-1.78-3-5.04-5.02-8.79-5.02H10.22C6.39,0,3.05,2.11,1.3,5.24l19.97,20.3s1.81,2.32,3.84,0Z"/>
      <path class="cls-1" d="m.05,9.22c-.03.33-.05.66-.05,1v22.24l11.65-11.51L.05,9.22Z"/>
      <path class="cls-1" d="m27.39,28.37s-3.98,4.07-8.4,0l-4.82-4.87L.04,37.64c.42,5.26,4.82,9.39,10.18,9.39h26.46c5.27,0,9.61-3.99,10.16-9.12l-14.52-14.53-4.92,4.99Z"/>
      <path class="cls-1" d="m46.9,32.91V10.22c0-.51-.05-1.01-.12-1.5l-11.95,12.12,12.07,12.07s0,0,0,0Z"/>
    </g>
  </g>
</svg>